<?xml version="1.0" encoding="UTF-8"?>
<svg xmlns="http://www.w3.org/2000/svg" xmlns:xlink="http://www.w3.org/1999/xlink" width="2458px" height="2458px" viewBox="0 0 2458 2458" version="1.1">
<defs>
<clipPath id="clip1">
  <path d="M 279.75 1011.570312 L 715 1011.570312 L 715 1447 L 279.75 1447 Z M 279.75 1011.570312 "/>
</clipPath>
<clipPath id="clip2">
  <path d="M 349.703125 1081.496094 L 644.507812 1081.496094 L 644.507812 1376.328125 L 349.703125 1376.328125 Z M 349.703125 1081.496094 "/>
</clipPath>
<clipPath id="clip3">
  <path d="M 349.703125 1229 C 349.703125 1310.445312 415.734375 1376.503906 497.183594 1376.503906 C 578.652344 1376.503906 644.6875 1310.445312 644.6875 1229 C 644.6875 1147.554688 578.652344 1081.496094 497.183594 1081.496094 C 415.734375 1081.496094 349.703125 1147.554688 349.703125 1229 Z M 349.703125 1229 "/>
</clipPath>
<clipPath id="clip4">
  <path d="M 439.316406 1186.34375 L 553.253906 1186.34375 L 553.253906 1379.195312 L 439.316406 1379.195312 Z M 439.316406 1186.34375 "/>
</clipPath>
<clipPath id="clip5">
  <path d="M 497.183594 1379.195312 C 529.109375 1379.195312 555.023438 1353.308594 555.023438 1321.355469 L 555.023438 1243.59375 C 555.023438 1211.640625 529.109375 1185.753906 497.183594 1185.753906 C 465.226562 1185.753906 439.316406 1211.640625 439.316406 1243.59375 L 439.316406 1321.355469 C 439.316406 1353.308594 465.226562 1379.195312 497.183594 1379.195312 Z M 497.183594 1379.195312 "/>
</clipPath>
</defs>
<g id="surface1">
<g clip-path="url(#clip1)" clip-rule="nonzero">
<path style=" stroke:none;fill-rule:nonzero;fill:rgb(100%,23.921569%,0%);fill-opacity:1;" d="M 497.183594 1446.40625 C 439.113281 1446.40625 384.496094 1423.796875 343.429688 1382.726562 C 302.359375 1341.660156 279.75 1287.070312 279.75 1229 C 279.75 1170.902344 302.359375 1116.316406 343.429688 1075.246094 C 384.496094 1034.179688 439.113281 1011.570312 497.183594 1011.570312 C 555.253906 1011.570312 609.867188 1034.179688 650.933594 1075.246094 C 691.976562 1116.316406 714.613281 1170.902344 714.613281 1229 C 714.613281 1261.339844 705.546875 1291.347656 705.113281 1292.703125 C 701.503906 1304.558594 696.84375 1316.15625 691.234375 1327.21875 L 712.539062 1434.960938 C 712.949219 1437.085938 712.308594 1439.285156 710.796875 1440.824219 C 709.261719 1442.359375 707.085938 1443.078125 704.960938 1442.691406 L 594.632812 1423.359375 C 582.957031 1429.222656 570.71875 1434.0625 558.195312 1437.726562 C 556.96875 1438.082031 528.007812 1446.40625 497.183594 1446.40625 Z M 497.183594 1446.40625 "/>
</g>
<g clip-path="url(#clip2)" clip-rule="nonzero">
<g clip-path="url(#clip3)" clip-rule="nonzero">
<path style=" stroke:none;fill-rule:nonzero;fill:rgb(15.294118%,3.529412%,28.627452%);fill-opacity:1;" d="M 497.15625 1376.429688 C 457.777344 1376.429688 420.726562 1361.09375 392.894531 1333.234375 C 365.039062 1305.402344 349.703125 1268.355469 349.703125 1228.972656 C 349.703125 1189.570312 365.039062 1152.546875 392.894531 1124.6875 C 420.726562 1096.855469 457.777344 1081.496094 497.15625 1081.496094 C 536.5625 1081.496094 573.585938 1096.855469 601.441406 1124.6875 C 629.273438 1152.546875 644.636719 1189.570312 644.636719 1228.972656 C 644.636719 1250.917969 638.464844 1271.246094 638.183594 1272.167969 C 635.726562 1280.207031 632.578125 1288.09375 628.761719 1295.597656 L 643.226562 1368.671875 C 643.507812 1370.105469 643.074219 1371.589844 642.023438 1372.640625 C 641 1373.6875 639.515625 1374.175781 638.082031 1373.917969 L 563.265625 1360.785156 C 555.355469 1364.777344 547.03125 1368.054688 538.53125 1370.539062 C 537.714844 1370.769531 518.074219 1376.429688 497.15625 1376.429688 Z M 497.15625 1376.429688 "/>
</g>
</g>
<g clip-path="url(#clip4)" clip-rule="nonzero">
<g clip-path="url(#clip5)" clip-rule="nonzero">
<path style=" stroke:none;fill-rule:nonzero;fill:rgb(100%,100%,100%);fill-opacity:1;" d="M 554.96875 1263.796875 L 530.03125 1263.796875 L 530.03125 1412.121094 L 463.332031 1412.121094 L 463.332031 1263.796875 L 438.394531 1263.796875 L 496.667969 1185.90625 Z M 554.96875 1263.796875 "/>
</g>
</g>
<path style=" stroke:none;fill-rule:nonzero;fill:rgb(15.294118%,3.529412%,28.627452%);fill-opacity:1;" d="M 937.675781 1148.691406 L 937.675781 1255.101562 C 937.675781 1279.425781 930.148438 1298.707031 915.140625 1312.96875 C 900.113281 1327.179688 879.730469 1334.269531 854 1334.269531 C 828.113281 1334.269531 807.527344 1327.179688 792.242188 1312.96875 C 776.929688 1298.707031 769.300781 1279.425781 769.300781 1255.101562 L 769.300781 1148.691406 L 816.003906 1148.691406 L 816.003906 1255.101562 C 816.003906 1267.390625 819.535156 1277.171875 826.65625 1284.394531 C 833.746094 1291.640625 842.964844 1295.25 854.308594 1295.25 C 865.496094 1295.25 874.433594 1291.664062 881.140625 1284.496094 C 887.898438 1277.328125 891.28125 1267.546875 891.28125 1255.101562 L 891.28125 1148.691406 Z M 937.675781 1148.691406 "/>
<path style=" stroke:none;fill-rule:nonzero;fill:rgb(15.294118%,3.529412%,28.627452%);fill-opacity:1;" d="M 1059.785156 1189.351562 C 1079.703125 1189.351562 1095.757812 1196.058594 1107.921875 1209.425781 C 1120.054688 1222.738281 1126.148438 1240.328125 1126.148438 1262.167969 C 1126.148438 1283.675781 1120.210938 1300.984375 1108.328125 1314.09375 C 1096.449219 1327.203125 1080.625 1333.757812 1060.910156 1333.757812 C 1042.320312 1333.757812 1027.882812 1326.972656 1017.589844 1313.378906 L 1017.589844 1383.125 L 972.21875 1383.125 L 972.21875 1190.886719 L 1017.589844 1190.886719 L 1017.589844 1209.527344 C 1028.085938 1196.085938 1042.167969 1189.351562 1059.785156 1189.351562 Z M 1048.824219 1297.914062 C 1058.246094 1297.914062 1065.878906 1294.480469 1071.765625 1287.570312 C 1077.628906 1280.605469 1080.574219 1271.746094 1080.574219 1260.941406 C 1080.574219 1250.082031 1077.628906 1241.25 1071.765625 1234.414062 C 1065.878906 1227.601562 1058.246094 1224.171875 1048.824219 1224.171875 C 1039.734375 1224.171875 1032.257812 1227.601562 1026.394531 1234.414062 C 1020.507812 1241.25 1017.589844 1250.082031 1017.589844 1260.941406 C 1017.589844 1271.949219 1020.457031 1280.859375 1026.191406 1287.671875 C 1031.976562 1294.507812 1039.53125 1297.914062 1048.824219 1297.914062 Z M 1048.824219 1297.914062 "/>
<path style=" stroke:none;fill-rule:nonzero;fill:rgb(15.294118%,3.529412%,28.627452%);fill-opacity:1;" d="M 1239.363281 1189.351562 C 1259.285156 1189.351562 1275.339844 1196.058594 1287.5 1209.425781 C 1299.636719 1222.738281 1305.730469 1240.328125 1305.730469 1262.167969 C 1305.730469 1283.675781 1299.789062 1300.984375 1287.910156 1314.09375 C 1276.03125 1327.203125 1260.207031 1333.757812 1240.492188 1333.757812 C 1221.902344 1333.757812 1207.460938 1326.972656 1197.167969 1313.378906 L 1197.167969 1383.125 L 1151.796875 1383.125 L 1151.796875 1190.886719 L 1197.167969 1190.886719 L 1197.167969 1209.527344 C 1207.667969 1196.085938 1221.75 1189.351562 1239.363281 1189.351562 Z M 1228.40625 1297.914062 C 1237.828125 1297.914062 1245.457031 1294.480469 1251.347656 1287.570312 C 1257.210938 1280.605469 1260.15625 1271.746094 1260.15625 1260.941406 C 1260.15625 1250.082031 1257.210938 1241.25 1251.347656 1234.414062 C 1245.457031 1227.601562 1237.828125 1224.171875 1228.40625 1224.171875 C 1219.316406 1224.171875 1211.839844 1227.601562 1205.976562 1234.414062 C 1200.085938 1241.25 1197.167969 1250.082031 1197.167969 1260.941406 C 1197.167969 1271.949219 1200.035156 1280.859375 1205.773438 1287.671875 C 1211.558594 1294.507812 1219.113281 1297.914062 1228.40625 1297.914062 Z M 1228.40625 1297.914062 "/>
<path style=" stroke:none;fill-rule:nonzero;fill:rgb(15.294118%,3.529412%,28.627452%);fill-opacity:1;" d="M 1392.007812 1189.351562 C 1416.433594 1189.351562 1434.820312 1196.878906 1447.109375 1211.882812 C 1459.449219 1226.914062 1464.851562 1247.523438 1463.289062 1273.742188 L 1363.945312 1273.742188 C 1366.199219 1282.140625 1370.195312 1288.644531 1375.929688 1293.203125 C 1381.714844 1297.707031 1388.832031 1299.960938 1397.230469 1299.960938 C 1410.136719 1299.960938 1421.402344 1295.148438 1431.03125 1285.519531 L 1454.890625 1308.871094 C 1439.65625 1325.460938 1419.148438 1333.757812 1393.339844 1333.757812 C 1370.398438 1333.757812 1352.117188 1327.203125 1338.546875 1314.09375 C 1325.027344 1300.984375 1318.269531 1283.625 1318.269531 1261.964844 C 1318.269531 1240.125 1325.027344 1222.585938 1338.546875 1209.320312 C 1352.117188 1196.007812 1369.9375 1189.351562 1392.007812 1189.351562 Z M 1363.128906 1249.367188 L 1419.761719 1249.367188 C 1419.761719 1240.839844 1417.253906 1233.953125 1412.289062 1228.679688 C 1407.292969 1223.429688 1400.714844 1220.792969 1392.519531 1220.792969 C 1384.789062 1220.792969 1378.308594 1223.40625 1373.0625 1228.578125 C 1367.863281 1233.695312 1364.5625 1240.636719 1363.128906 1249.367188 Z M 1363.128906 1249.367188 "/>
<path style=" stroke:none;fill-rule:nonzero;fill:rgb(15.294118%,3.529412%,28.627452%);fill-opacity:1;" d="M 1533.339844 1190.886719 L 1533.339844 1214.75 C 1543.222656 1197.824219 1558.535156 1189.195312 1579.222656 1188.839844 L 1579.222656 1229.703125 C 1566.242188 1228.472656 1555.617188 1230.625 1547.371094 1236.15625 C 1539.179688 1241.632812 1534.492188 1249.445312 1533.339844 1259.609375 L 1533.339844 1332.222656 L 1487.96875 1332.222656 L 1487.96875 1190.886719 Z M 1533.339844 1190.886719 "/>
<path style=" stroke:none;fill-rule:nonzero;fill:rgb(100%,23.921569%,0%);fill-opacity:1;" d="M 1661.476562 1189.351562 C 1675.457031 1189.351562 1687.925781 1192.117188 1698.859375 1197.648438 C 1709.769531 1203.125 1718.320312 1210.933594 1724.464844 1221.101562 L 1691.894531 1240.765625 C 1684.933594 1230.933594 1675.40625 1226.015625 1663.320312 1226.015625 C 1654.566406 1226.015625 1647.445312 1229.292969 1641.917969 1235.847656 C 1636.4375 1242.402344 1633.722656 1251.003906 1633.722656 1261.65625 C 1633.722656 1272.511719 1636.410156 1281.21875 1641.8125 1287.773438 C 1647.269531 1294.328125 1654.4375 1297.605469 1663.320312 1297.605469 C 1676.636719 1297.605469 1686.261719 1292.28125 1692.203125 1281.628906 L 1725.179688 1300.984375 C 1719.445312 1311.507812 1710.996094 1319.597656 1699.882812 1325.257812 C 1688.824219 1330.941406 1675.84375 1333.757812 1660.964844 1333.757812 C 1639.101562 1333.757812 1621.484375 1327.179688 1608.121094 1313.992188 C 1594.726562 1300.832031 1588.046875 1283.472656 1588.046875 1261.964844 C 1588.046875 1240.25 1594.804688 1222.738281 1608.324219 1209.425781 C 1621.894531 1196.058594 1639.613281 1189.351562 1661.476562 1189.351562 Z M 1661.476562 1189.351562 "/>
<path style=" stroke:none;fill-rule:nonzero;fill:rgb(100%,23.921569%,0%);fill-opacity:1;" d="M 1841.382812 1188.839844 C 1856.949219 1188.839844 1869.441406 1193.804688 1878.867188 1203.6875 C 1888.289062 1213.519531 1893 1226.683594 1893 1243.121094 L 1893 1332.222656 L 1847.628906 1332.222656 L 1847.628906 1255.613281 C 1847.628906 1247.421875 1845.402344 1240.941406 1840.972656 1236.15625 C 1836.515625 1231.316406 1830.449219 1228.882812 1822.742188 1228.882812 C 1813.984375 1228.882812 1806.996094 1232.058594 1801.746094 1238.410156 C 1796.472656 1244.707031 1793.859375 1252.722656 1793.859375 1262.476562 L 1793.859375 1332.222656 L 1748.488281 1332.222656 L 1748.488281 1137.628906 L 1793.859375 1137.628906 L 1793.859375 1214.238281 C 1803.820312 1197.648438 1819.667969 1189.195312 1841.382812 1188.839844 Z M 1841.382812 1188.839844 "/>
<path style=" stroke:none;fill-rule:nonzero;fill:rgb(100%,23.921569%,0%);fill-opacity:1;" d="M 1988.402344 1188.839844 C 2007.785156 1188.839844 2022.839844 1193.34375 2033.566406 1202.359375 C 2044.347656 1211.320312 2049.851562 1223.839844 2050.054688 1239.945312 L 2050.054688 1332.222656 L 2005.710938 1332.222656 L 2005.710938 1315.9375 C 1996.414062 1328.175781 1982 1334.269531 1962.488281 1334.269531 C 1947.585938 1334.269531 1935.785156 1330.171875 1927.054688 1321.980469 C 1918.296875 1313.785156 1913.945312 1303.136719 1913.945312 1290.027344 C 1913.945312 1276.585938 1918.605469 1266.136719 1927.976562 1258.6875 C 1937.320312 1251.261719 1950.738281 1247.472656 1968.226562 1247.320312 L 2005.503906 1247.320312 L 2005.503906 1245.167969 C 2005.503906 1238.203125 2003.175781 1232.75 1998.539062 1228.78125 C 1993.878906 1224.839844 1987.019531 1222.839844 1977.953125 1222.839844 C 1965.179688 1222.839844 1951.121094 1226.808594 1935.757812 1234.722656 L 1922.855469 1204.816406 C 1945.796875 1194.164062 1967.636719 1188.839844 1988.402344 1188.839844 Z M 1976.316406 1303.648438 C 1983.484375 1303.648438 1989.757812 1301.882812 1995.160156 1298.320312 C 2000.613281 1294.710938 2004.070312 1290.027344 2005.503906 1284.292969 L 2005.503906 1271.695312 L 1976.929688 1271.695312 C 1963.257812 1271.695312 1956.445312 1276.761719 1956.445312 1286.851562 C 1956.445312 1292.125 1958.1875 1296.25 1961.671875 1299.242188 C 1965.152344 1302.1875 1970.015625 1303.648438 1976.316406 1303.648438 Z M 1976.316406 1303.648438 "/>
<path style=" stroke:none;fill-rule:nonzero;fill:rgb(100%,23.921569%,0%);fill-opacity:1;" d="M 2164.542969 1293.203125 L 2173.554688 1324.644531 C 2162.492188 1331.070312 2149.894531 1334.269531 2135.761719 1334.269531 C 2121.757812 1334.269531 2110.414062 1330.429688 2101.761719 1322.699219 C 2093.15625 1314.914062 2088.855469 1303.851562 2088.855469 1289.515625 L 2088.855469 1227.039062 L 2069.191406 1227.039062 L 2069.191406 1197.441406 L 2088.855469 1197.441406 L 2088.855469 1158.113281 L 2133.917969 1158.113281 L 2133.917969 1197.238281 L 2170.890625 1197.238281 L 2170.890625 1227.039062 L 2133.917969 1227.039062 L 2133.917969 1282.449219 C 2133.917969 1287.851562 2134.996094 1291.820312 2137.195312 1294.328125 C 2139.375 1296.863281 2142.648438 1298.066406 2147.027344 1297.914062 C 2151.175781 1297.914062 2157.015625 1296.351562 2164.542969 1293.203125 Z M 2164.542969 1293.203125 "/>
</g>
</svg>
